<svg xmlns="http://www.w3.org/2000/svg" width="10.272" height="19" viewBox="0 0 10.272 19">
  <g id="facebook-logo" transform="translate(-22.077)">
    <path id="Path_32" data-name="Path 32" d="M31.963,0,29.5,0a4.327,4.327,0,0,0-4.557,4.676V6.832H22.464a.387.387,0,0,0-.387.388v3.124a.387.387,0,0,0,.387.387h2.477v7.882a.387.387,0,0,0,.387.387h3.232a.387.387,0,0,0,.387-.387V10.731h2.9a.387.387,0,0,0,.387-.387V7.219a.388.388,0,0,0-.388-.388h-2.9V5c0-.878.209-1.324,1.354-1.324h1.66a.387.387,0,0,0,.387-.387V.391A.388.388,0,0,0,31.963,0Z"/>
  </g>
</svg>
