<svg xmlns="http://www.w3.org/2000/svg" width="50.537" height="45.527" viewBox="0 0 50.537 45.527">
  <g id="heart" transform="translate(-538.625 -3752.097)">
    <path id="Path_40" data-name="Path 40" d="M94.5,3644.984s-13.2-10.062-19.5-2.439a16.843,16.843,0,0,0-3.149,15.911l12.762,13.757,9.889,9.282,21.6-23.038s3.646-7.458,0-12.431-9.944-6.961-12.928-6.63S94.5,3644.984,94.5,3644.984Z" transform="translate(470 114)" fill="#e81224"/>
    <path id="Path_39" data-name="Path 39" d="M41.836-37.9a13.887,13.887,0,0,1,3.8.516,14.579,14.579,0,0,1,3.417,1.45,14.345,14.345,0,0,1,2.9,2.241,14.345,14.345,0,0,1,2.241,2.9,14.578,14.578,0,0,1,1.45,3.417,13.887,13.887,0,0,1,.516,3.8A14.2,14.2,0,0,1,55.1-18.083a14.218,14.218,0,0,1-3.131,4.636L30.894,7.625,9.822-13.447a14.218,14.218,0,0,1-3.131-4.636,14.2,14.2,0,0,1-1.066-5.493,14,14,0,0,1,.516-3.812,14.6,14.6,0,0,1,1.439-3.417,14.226,14.226,0,0,1,2.241-2.9,14.226,14.226,0,0,1,2.9-2.241,14.6,14.6,0,0,1,3.417-1.439,14.005,14.005,0,0,1,3.812-.516,14.309,14.309,0,0,1,3.186.341,13.4,13.4,0,0,1,2.823.978,14.489,14.489,0,0,1,2.549,1.571,22.609,22.609,0,0,1,2.384,2.12,22.609,22.609,0,0,1,2.384-2.12A15,15,0,0,1,35.826-36.6a12.619,12.619,0,0,1,2.823-.978A14.767,14.767,0,0,1,41.836-37.9ZM30.894,3.164,49.724-15.688A11.1,11.1,0,0,0,52.152-19.3,11.012,11.012,0,0,0,53-23.577a10.815,10.815,0,0,0-.879-4.34,11.318,11.318,0,0,0-2.4-3.549,11.318,11.318,0,0,0-3.549-2.4,10.815,10.815,0,0,0-4.34-.879,10.752,10.752,0,0,0-3.208.439,10.74,10.74,0,0,0-2.593,1.2,14.653,14.653,0,0,0-2.252,1.78Q32.717-30.3,31.6-29.158l-.7.725-.637-.659q-1.121-1.165-2.2-2.186a15.362,15.362,0,0,0-2.274-1.791,10.953,10.953,0,0,0-2.615-1.219,10.616,10.616,0,0,0-3.219-.45,10.815,10.815,0,0,0-4.34.879,11.318,11.318,0,0,0-3.549,2.4,11.318,11.318,0,0,0-2.4,3.549,10.815,10.815,0,0,0-.879,4.34A11.012,11.012,0,0,0,9.635-19.3a11.1,11.1,0,0,0,2.428,3.615Z" transform="translate(533 3790)"/>
    <path id="Path_41" data-name="Path 41" d="M91.788,3667.308s-9.757-7.953-10.5-9.54-1.135-6.563-1.135-6.563" transform="translate(470 114)" fill="none" stroke="#ef6950" stroke-linecap="round" stroke-width="4"/>
  </g>
</svg>
