<svg id="instagram-logo" xmlns="http://www.w3.org/2000/svg" width="19" height="19" viewBox="0 0 19 19">
  <path id="Path_29" data-name="Path 29" d="M13.757,0H5.243A5.249,5.249,0,0,0,0,5.243v8.513A5.249,5.249,0,0,0,5.243,19h8.513A5.249,5.249,0,0,0,19,13.757V5.243A5.249,5.249,0,0,0,13.757,0Zm3.558,13.757a3.562,3.562,0,0,1-3.558,3.558H5.243a3.561,3.561,0,0,1-3.557-3.558V5.243A3.562,3.562,0,0,1,5.243,1.686h8.513a3.562,3.562,0,0,1,3.558,3.558v8.513Z"/>
  <path id="Path_30" data-name="Path 30" d="M45.864,40.97a4.9,4.9,0,1,0,4.9,4.9A4.9,4.9,0,0,0,45.864,40.97Zm0,8.106a3.21,3.21,0,1,1,3.21-3.21A3.214,3.214,0,0,1,45.864,49.076Z" transform="translate(-36.364 -36.366)"/>
  <path id="Path_31" data-name="Path 31" d="M120.157,28.251a1.236,1.236,0,1,0,.874.362A1.241,1.241,0,0,0,120.157,28.251Z" transform="translate(-105.556 -25.076)"/>
</svg>
