<svg xmlns="http://www.w3.org/2000/svg" width="118.162" height="118.171" viewBox="0 0 118.162 118.171">
  <g id="icon" transform="translate(-9.448 -9.441)">
    <path id="Path_33" data-name="Path 33" d="M39.811,26.92,16.929,10.286a2.759,2.759,0,0,0-4.382,2.226V45.768a2.751,2.751,0,0,0,1.507,2.461,2.779,2.779,0,0,0,1.254.3,2.743,2.743,0,0,0,1.621-.535L39.811,31.372a2.737,2.737,0,0,0,0-4.452Z" transform="translate(45.68 41.192)" fill="#fff" stroke="#fff" stroke-width="4"/>
    <path id="Path_34" data-name="Path 34" d="M68.533,125.612A57.085,57.085,0,1,1,125.61,68.535,57.077,57.077,0,0,1,68.533,125.612Z" transform="translate(0 0)" fill="none" stroke="#fff" stroke-width="4"/>
  </g>
</svg>
