<svg xmlns="http://www.w3.org/2000/svg" width="26.824" height="19" viewBox="0 0 26.824 19">
  <path id="youtube_1_" data-name="youtube (1)" d="M26.23,6.215l.034.219a3.4,3.4,0,0,0-2.311-2.36l-.023-.006C21.838,3.5,13.423,3.5,13.423,3.5s-8.394-.011-10.506.568A3.4,3.4,0,0,0,.589,6.41l-.006.023A37.389,37.389,0,0,0,.618,19.786l-.035-.221a3.4,3.4,0,0,0,2.311,2.36l.023.006c2.089.569,10.506.569,10.506.569s8.392,0,10.506-.569a3.4,3.4,0,0,0,2.329-2.343l.006-.023a34.943,34.943,0,0,0,.559-6.312c0-.082,0-.164,0-.247s0-.167,0-.257a36.051,36.051,0,0,0-.593-6.534ZM10.738,17.081V8.93l7,4.082Z" transform="translate(0 -3.5)"/>
</svg>
